<mxfile host="7Nw">
  <diagram id="bLn" name="Domain Modal">
    <mxGraphModel dx="0" dy="0" background="#fafafa" grid="0" gridSize="10" guides="1" tooltips="1" connect="1" arrows="1" fold="1" page="1" pageScale="1" pageWidth="1169" pageHeight="827" math="0" shadow="0">
      <root>
        <mxCell id="page_root_bLn" parent="bLn"/>
        <mxCell id="node_root_bLn" parent="page_root_bLn"/>
        <mxCell id="bLn-2" value="Configuration" style="whiteSpace=wrap;html=1;rounded=0;fillColor=#f5f5f5;strokeColor=#666666;fontColor=#333333" vertex="1" parent="node_root_bLn">
          <mxGeometry x="10" y="10" width="160" height="160" as="geometry"/>
        </mxCell>
        <mxCell id="bLn-3" value="&lt;p style=&quot;margin:0px;margin-left:4px;margin-top:4px;text-align:center&quot;&gt;&lt;b&gt;ShapeDefaults&lt;/b&gt;&lt;/p&gt;&lt;hr size=&quot;1&quot;/&gt;&lt;p style=&quot;margin:0px;margin-left:4px;margin-top:4px&quot;&gt;type: symbol&lt;/p&gt;&lt;p style=&quot;margin:0px;margin-left:4px;margin-top:4px&quot;&gt;category: symbol&lt;/p&gt;&lt;p style=&quot;margin:0px;margin-left:4px;margin-top:4px&quot;&gt;x: integer&lt;/p&gt;&lt;p style=&quot;margin:0px;margin-left:4px;margin-top:4px&quot;&gt;y: integer&lt;/p&gt;&lt;p style=&quot;margin:0px;margin-left:4px;margin-top:4px&quot;&gt;w: integer&lt;/p&gt;&lt;p style=&quot;margin:0px;margin-left:4px;margin-top:4px&quot;&gt;h: integer&lt;/p&gt;&lt;p style=&quot;margin:0px;margin-left:4px;margin-top:4px&quot;&gt;style_modifiers: string&lt;/p&gt;" style="whiteSpace=wrap;html=1;rounded=0;fillColor=#ffe6cc;strokeColor=#d79b00;fontColor=#333333;align=left;overflow=fill;fontSize=12;fontFamily=Helvetica" vertex="1" parent="node_root_bLn">
          <mxGeometry x="190" y="10" width="160" height="160" as="geometry"/>
        </mxCell>
        <mxCell id="bLn-4" value="&lt;p style=&quot;margin:0px;margin-left:4px;margin-top:4px;text-align:center&quot;&gt;&lt;b&gt;ShapeThemeStyle&lt;/b&gt;&lt;/p&gt;&lt;hr size=&quot;1&quot;/&gt;&lt;p style=&quot;margin:0px;margin-left:4px;margin-top:4px&quot;&gt;theme: symbol&lt;/p&gt;&lt;p style=&quot;margin:0px;margin-left:4px;margin-top:4px&quot;&gt;fill_color: string&lt;/p&gt;&lt;p style=&quot;margin:0px;margin-left:4px;margin-top:4px&quot;&gt;stroke_color: string&lt;/p&gt;&lt;p style=&quot;margin:0px;margin-left:4px;margin-top:4px&quot;&gt;font_color: string&lt;/p&gt;" style="whiteSpace=wrap;html=1;rounded=0;fillColor=#ffe6cc;strokeColor=#d79b00;fontColor=#333333;align=left;overflow=fill;fontSize=12;fontFamily=Helvetica" vertex="1" parent="node_root_bLn">
          <mxGeometry x="370" y="10" width="160" height="160" as="geometry"/>
        </mxCell>
        <mxCell id="bLn-5" value="&lt;p style=&quot;margin:0px;margin-left:4px;margin-top:4px;text-align:center&quot;&gt;&lt;b&gt;Configuration&lt;/b&gt;&lt;/p&gt;&lt;hr size=&quot;1&quot;/&gt;&lt;p style=&quot;margin:0px;margin-left:4px;margin-top:4px&quot;&gt;base_style: Struct&lt;/p&gt;&lt;p style=&quot;margin:0px;margin-left:4px;margin-top:4px&quot;&gt;shapes: Hash&amp;lt;Struct&amp;gt;&lt;/p&gt;&lt;p style=&quot;margin:0px;margin-left:4px;margin-top:4px&quot;&gt;themes: Hash&lt;/p&gt;&lt;hr size=&quot;1&quot;/&gt;&lt;p style=&quot;margin:0px;margin-left:4px;margin-top:4px&quot;&gt;+ &amp;lt;ConfigurationThemes&amp;gt;()&lt;/p&gt;&lt;p style=&quot;margin:0px;margin-left:4px;margin-top:4px&quot;&gt;+ &amp;lt;ConfigurationShapes&amp;gt;()&lt;/p&gt;" style="whiteSpace=wrap;html=1;rounded=0;fillColor=#ffe6cc;strokeColor=#d79b00;fontColor=#333333;align=left;overflow=fill;fontSize=12;fontFamily=Helvetica" vertex="1" parent="node_root_bLn">
          <mxGeometry x="550" y="10" width="160" height="160" as="geometry"/>
        </mxCell>
        <mxCell id="bLn-6" value="&lt;p style=&quot;margin:0px;margin-left:4px;margin-top:4px;text-align:center&quot;&gt;&lt;i&gt;&amp;lt;&amp;lt; MixIn &amp;gt;&amp;gt;&lt;/i&gt;&lt;/p&gt;&lt;p style=&quot;margin:0px;margin-left:4px;margin-top:4px;text-align:center&quot;&gt;&lt;b&gt;ConfigurationExtension&lt;/b&gt;&lt;/p&gt;&lt;hr size=&quot;1&quot;/&gt;&lt;p style=&quot;margin:0px;margin-left:4px;margin-top:4px&quot;&gt;drawio: Configuration&lt;/p&gt;" style="whiteSpace=wrap;html=1;rounded=0;fillColor=#dae8fc;strokeColor=#6c8ebf;fontColor=#333333;align=left;overflow=fill;fontSize=12;fontFamily=Helvetica" vertex="1" parent="node_root_bLn">
          <mxGeometry x="730" y="10" width="160" height="160" as="geometry"/>
        </mxCell>
        <mxCell id="bLn-7" value="&lt;p style=&quot;margin:0px;margin-left:4px;margin-top:4px;text-align:center&quot;&gt;&lt;i&gt;&amp;lt;&amp;lt; MixIn &amp;gt;&amp;gt;&lt;/i&gt;&lt;/p&gt;&lt;p style=&quot;margin:0px;margin-left:4px;margin-top:4px;text-align:center&quot;&gt;&lt;b&gt;ConfigurationShapes&lt;/b&gt;&lt;/p&gt;&lt;hr size=&quot;1&quot;/&gt;&lt;p style=&quot;margin:0px;margin-left:4px;margin-top:4px&quot;&gt;add_shapes()&lt;/p&gt;" style="whiteSpace=wrap;html=1;rounded=0;fillColor=#dae8fc;strokeColor=#6c8ebf;fontColor=#333333;align=left;overflow=fill;fontSize=12;fontFamily=Helvetica" vertex="1" parent="node_root_bLn">
          <mxGeometry x="910" y="10" width="160" height="160" as="geometry"/>
        </mxCell>
        <mxCell id="bLn-8" value="&lt;p style=&quot;margin:0px;margin-left:4px;margin-top:4px;text-align:center&quot;&gt;&lt;i&gt;&amp;lt;&amp;lt; MixIn &amp;gt;&amp;gt;&lt;/i&gt;&lt;/p&gt;&lt;p style=&quot;margin:0px;margin-left:4px;margin-top:4px;text-align:center&quot;&gt;&lt;b&gt;ConfigurationThemes&lt;/b&gt;&lt;/p&gt;&lt;hr size=&quot;1&quot;/&gt;&lt;p style=&quot;margin:0px;margin-left:4px;margin-top:4px&quot;&gt;add_theme()&lt;/p&gt;&lt;p style=&quot;margin:0px;margin-left:4px;margin-top:4px&quot;&gt;add_themes()&lt;/p&gt;" style="whiteSpace=wrap;html=1;rounded=0;fillColor=#dae8fc;strokeColor=#6c8ebf;fontColor=#333333;align=left;overflow=fill;fontSize=12;fontFamily=Helvetica" vertex="1" parent="node_root_bLn">
          <mxGeometry x="10" y="190" width="160" height="160" as="geometry"/>
        </mxCell>
        <mxCell id="bLn-9" value="DOM Builder" style="whiteSpace=wrap;html=1;rounded=0;fillColor=#f5f5f5;strokeColor=#666666;fontColor=#333333" vertex="1" parent="node_root_bLn">
          <mxGeometry x="190" y="190" width="160" height="160" as="geometry"/>
        </mxCell>
        <mxCell id="bLn-10" value="&lt;p style=&quot;margin:0px;margin-left:4px;margin-top:4px;text-align:center&quot;&gt;&lt;b&gt;DomBuilder&lt;/b&gt;&lt;/p&gt;&lt;hr size=&quot;1&quot;/&gt;&lt;p style=&quot;margin:0px;margin-left:4px;margin-top:4px&quot;&gt;actions: Array&lt;/p&gt;&lt;p style=&quot;margin:0px;margin-left:4px;margin-top:4px&quot;&gt;last_action: Hash&lt;/p&gt;&lt;p style=&quot;margin:0px;margin-left:4px;margin-top:4px&quot;&gt;focus_node: Anchor&lt;/p&gt;&lt;p style=&quot;margin:0px;margin-left:4px;margin-top:4px&quot;&gt;current_page: Page&lt;/p&gt;&lt;p style=&quot;margin:0px;margin-left:4px;margin-top:4px&quot;&gt;dom&lt;/p&gt;&lt;hr size=&quot;1&quot;/&gt;&lt;p style=&quot;margin:0px;margin-left:4px;margin-top:4px&quot;&gt;reset()&lt;/p&gt;&lt;p style=&quot;margin:0px;margin-left:4px;margin-top:4px&quot;&gt;queue_action()&lt;/p&gt;&lt;p style=&quot;margin:0px;margin-left:4px;margin-top:4px&quot;&gt;set_diagram()&lt;/p&gt;&lt;p style=&quot;margin:0px;margin-left:4px;margin-top:4px&quot;&gt;diagram()&lt;/p&gt;&lt;p style=&quot;margin:0px;margin-left:4px;margin-top:4px&quot;&gt;add_page()&lt;/p&gt;&lt;p style=&quot;margin:0px;margin-left:4px;margin-top:4px&quot;&gt;add_grid_layout()&lt;/p&gt;&lt;p style=&quot;margin:0px;margin-left:4px;margin-top:4px&quot;&gt;add_flex_layout()&lt;/p&gt;&lt;p style=&quot;margin:0px;margin-left:4px;margin-top:4px&quot;&gt;add_layout()&lt;/p&gt;&lt;p style=&quot;margin:0px;margin-left:4px;margin-top:4px&quot;&gt;add_shape()&lt;/p&gt;&lt;p style=&quot;margin:0px;margin-left:4px;margin-top:4px&quot;&gt;+ &amp;lt;DomBuilderShapes&amp;gt;()&lt;/p&gt;" style="whiteSpace=wrap;html=1;rounded=0;fillColor=#ffe6cc;strokeColor=#d79b00;fontColor=#333333;align=left;overflow=fill;fontSize=12;fontFamily=Helvetica" vertex="1" parent="node_root_bLn">
          <mxGeometry x="370" y="190" width="160" height="160" as="geometry"/>
        </mxCell>
        <mxCell id="bLn-11" value="&lt;p style=&quot;margin:0px;margin-left:4px;margin-top:4px;text-align:center&quot;&gt;&lt;i&gt;&amp;lt;&amp;lt; MixIn &amp;gt;&amp;gt;&lt;/i&gt;&lt;/p&gt;&lt;p style=&quot;margin:0px;margin-left:4px;margin-top:4px;text-align:center&quot;&gt;&lt;b&gt;DomBuilderShapes&lt;/b&gt;&lt;/p&gt;&lt;hr size=&quot;1&quot;/&gt;&lt;p style=&quot;margin:0px;margin-left:4px;margin-top:4px&quot;&gt;add_* (for each shape)()&lt;/p&gt;" style="whiteSpace=wrap;html=1;rounded=0;fillColor=#dae8fc;strokeColor=#6c8ebf;fontColor=#333333;align=left;overflow=fill;fontSize=12;fontFamily=Helvetica" vertex="1" parent="node_root_bLn">
          <mxGeometry x="550" y="190" width="160" height="160" as="geometry"/>
        </mxCell>
        <mxCell id="bLn-12" value="DrawIO DSL" style="whiteSpace=wrap;html=1;rounded=0;fillColor=#f5f5f5;strokeColor=#666666;fontColor=#333333" vertex="1" parent="node_root_bLn">
          <mxGeometry x="730" y="190" width="160" height="160" as="geometry"/>
        </mxCell>
        <mxCell id="bLn-13" value="&lt;p style=&quot;margin:0px;margin-left:4px;margin-top:4px;text-align:center&quot;&gt;&lt;b&gt;Drawio&lt;/b&gt;&lt;/p&gt;&lt;hr size=&quot;1&quot;/&gt;&lt;p style=&quot;margin:0px;margin-left:4px;margin-top:4px&quot;&gt;diagram()&lt;/p&gt;&lt;p style=&quot;margin:0px;margin-left:4px;margin-top:4px&quot;&gt;page()&lt;/p&gt;&lt;p style=&quot;margin:0px;margin-left:4px;margin-top:4px&quot;&gt;save()&lt;/p&gt;&lt;p style=&quot;margin:0px;margin-left:4px;margin-top:4px&quot;&gt;osave()&lt;/p&gt;&lt;p style=&quot;margin:0px;margin-left:4px;margin-top:4px&quot;&gt;export_svg()&lt;/p&gt;&lt;p style=&quot;margin:0px;margin-left:4px;margin-top:4px&quot;&gt;export_png()&lt;/p&gt;" style="whiteSpace=wrap;html=1;rounded=0;fillColor=#ffe6cc;strokeColor=#d79b00;fontColor=#333333;align=left;overflow=fill;fontSize=12;fontFamily=Helvetica" vertex="1" parent="node_root_bLn">
          <mxGeometry x="910" y="190" width="160" height="160" as="geometry"/>
        </mxCell>
        <mxCell id="bLn-14" value="&lt;p style=&quot;margin:0px;margin-left:4px;margin-top:4px;text-align:center&quot;&gt;&lt;b&gt;DrawioPage&lt;/b&gt;&lt;/p&gt;&lt;hr size=&quot;1&quot;/&gt;&lt;p style=&quot;margin:0px;margin-left:4px;margin-top:4px&quot;&gt;grid_layout()&lt;/p&gt;&lt;p style=&quot;margin:0px;margin-left:4px;margin-top:4px&quot;&gt;flex_layout()&lt;/p&gt;&lt;p style=&quot;margin:0px;margin-left:4px;margin-top:4px&quot;&gt;+ &amp;lt;DrawioShapes&amp;gt;()&lt;/p&gt;" style="whiteSpace=wrap;html=1;rounded=0;fillColor=#ffe6cc;strokeColor=#d79b00;fontColor=#333333;align=left;overflow=fill;fontSize=12;fontFamily=Helvetica" vertex="1" parent="node_root_bLn">
          <mxGeometry x="10" y="370" width="160" height="160" as="geometry"/>
        </mxCell>
        <mxCell id="bLn-15" value="&lt;p style=&quot;margin:0px;margin-left:4px;margin-top:4px;text-align:center&quot;&gt;&lt;i&gt;&amp;lt;&amp;lt; MixIn &amp;gt;&amp;gt;&lt;/i&gt;&lt;/p&gt;&lt;p style=&quot;margin:0px;margin-left:4px;margin-top:4px;text-align:center&quot;&gt;&lt;b&gt;DrawioShapes&lt;/b&gt;&lt;/p&gt;&lt;hr size=&quot;1&quot;/&gt;&lt;p style=&quot;margin:0px;margin-left:4px;margin-top:4px&quot;&gt;random()&lt;/p&gt;&lt;p style=&quot;margin:0px;margin-left:4px;margin-top:4px&quot;&gt;* (for each shape)()&lt;/p&gt;" style="whiteSpace=wrap;html=1;rounded=0;fillColor=#dae8fc;strokeColor=#6c8ebf;fontColor=#333333;align=left;overflow=fill;fontSize=12;fontFamily=Helvetica" vertex="1" parent="node_root_bLn">
          <mxGeometry x="190" y="370" width="160" height="160" as="geometry"/>
        </mxCell>
        <mxCell id="bLn-16" value="1000 Extension Shapes" style="whiteSpace=wrap;html=1;rounded=0;fillColor=#f5f5f5;strokeColor=#666666;fontColor=#333333" vertex="1" parent="node_root_bLn">
          <mxGeometry x="370" y="370" width="160" height="160" as="geometry"/>
        </mxCell>
        <mxCell id="bLn-17" value="&lt;p style=&quot;margin:0px;margin-left:4px;margin-top:4px;text-align:center&quot;&gt;&lt;b&gt;DrawioExtensions&lt;/b&gt;&lt;/p&gt;&lt;hr size=&quot;1&quot;/&gt;&lt;p style=&quot;margin:0px;margin-left:4px;margin-top:4px&quot;&gt;sections: Array&lt;/p&gt;&lt;p style=&quot;margin:0px;margin-left:4px;margin-top:4px&quot;&gt;current_section: Hash&lt;/p&gt;&lt;hr size=&quot;1&quot;/&gt;&lt;p style=&quot;margin:0px;margin-left:4px;margin-top:4px&quot;&gt;section()&lt;/p&gt;&lt;p style=&quot;margin:0px;margin-left:4px;margin-top:4px&quot;&gt;shape()&lt;/p&gt;&lt;p style=&quot;margin:0px;margin-left:4px;margin-top:4px&quot;&gt;to_h()&lt;/p&gt;&lt;p style=&quot;margin:0px;margin-left:4px;margin-top:4px&quot;&gt;build_extensions()&lt;/p&gt;&lt;p style=&quot;margin:0px;margin-left:4px;margin-top:4px&quot;&gt;configure_extensions()&lt;/p&gt;&lt;p style=&quot;margin:0px;margin-left:4px;margin-top:4px&quot;&gt;+ &amp;lt;DrawioExtensionsActive&amp;gt;()&lt;/p&gt;" style="whiteSpace=wrap;html=1;rounded=0;fillColor=#ffe6cc;strokeColor=#d79b00;fontColor=#333333;align=left;overflow=fill;fontSize=12;fontFamily=Helvetica" vertex="1" parent="node_root_bLn">
          <mxGeometry x="550" y="370" width="160" height="160" as="geometry"/>
        </mxCell>
        <mxCell id="bLn-18" value="&lt;p style=&quot;margin:0px;margin-left:4px;margin-top:4px;text-align:center&quot;&gt;&lt;i&gt;&amp;lt;&amp;lt; MixIn &amp;gt;&amp;gt;&lt;/i&gt;&lt;/p&gt;&lt;p style=&quot;margin:0px;margin-left:4px;margin-top:4px;text-align:center&quot;&gt;&lt;b&gt;DrawioExtensionsActive&lt;/b&gt;&lt;/p&gt;&lt;hr size=&quot;1&quot;/&gt;&lt;p style=&quot;margin:0px;margin-left:4px;margin-top:4px&quot;&gt;apply_active_flags()&lt;/p&gt;&lt;p style=&quot;margin:0px;margin-left:4px;margin-top:4px&quot;&gt;check_if_active()&lt;/p&gt;" style="whiteSpace=wrap;html=1;rounded=0;fillColor=#dae8fc;strokeColor=#6c8ebf;fontColor=#333333;align=left;overflow=fill;fontSize=12;fontFamily=Helvetica" vertex="1" parent="node_root_bLn">
          <mxGeometry x="730" y="370" width="160" height="160" as="geometry"/>
        </mxCell>
        <mxCell id="bLn-19" value="&lt;p style=&quot;margin:0px;margin-left:4px;margin-top:4px;text-align:center&quot;&gt;&lt;b&gt;LayoutEngine&lt;/b&gt;&lt;/p&gt;&lt;hr size=&quot;1&quot;/&gt;&lt;p style=&quot;margin:0px;margin-left:4px;margin-top:4px&quot;&gt;page: Page&lt;/p&gt;&lt;p style=&quot;margin:0px;margin-left:4px;margin-top:4px&quot;&gt;current_page: Page&lt;/p&gt;&lt;p style=&quot;margin:0px;margin-left:4px;margin-top:4px&quot;&gt;current_layout: Layout&lt;/p&gt;&lt;hr size=&quot;1&quot;/&gt;&lt;p style=&quot;margin:0px;margin-left:4px;margin-top:4px&quot;&gt;call()&lt;/p&gt;&lt;p style=&quot;margin:0px;margin-left:4px;margin-top:4px&quot;&gt;traverse_node()&lt;/p&gt;&lt;p style=&quot;margin:0px;margin-left:4px;margin-top:4px&quot;&gt;process_node()&lt;/p&gt;" style="whiteSpace=wrap;html=1;rounded=0;fillColor=#ffe6cc;strokeColor=#d79b00;fontColor=#333333;align=left;overflow=fill;fontSize=12;fontFamily=Helvetica" vertex="1" parent="node_root_bLn">
          <mxGeometry x="910" y="370" width="160" height="160" as="geometry"/>
        </mxCell>
        <mxCell id="bLn-20" value="&lt;p style=&quot;margin:0px;margin-left:4px;margin-top:4px;text-align:center&quot;&gt;&lt;b&gt;XmlBuilder&lt;/b&gt;&lt;/p&gt;&lt;hr size=&quot;1&quot;/&gt;&lt;p style=&quot;margin:0px;margin-left:4px;margin-top:4px&quot;&gt;diagram&lt;/p&gt;&lt;hr size=&quot;1&quot;/&gt;&lt;p style=&quot;margin:0px;margin-left:4px;margin-top:4px&quot;&gt;build()&lt;/p&gt;" style="whiteSpace=wrap;html=1;rounded=0;fillColor=#ffe6cc;strokeColor=#d79b00;fontColor=#333333;align=left;overflow=fill;fontSize=12;fontFamily=Helvetica" vertex="1" parent="node_root_bLn">
          <mxGeometry x="10" y="550" width="160" height="160" as="geometry"/>
        </mxCell>
        <mxCell id="bLn-21" value="Formatters" style="whiteSpace=wrap;html=1;rounded=0;fillColor=#f5f5f5;strokeColor=#666666;fontColor=#333333" vertex="1" parent="node_root_bLn">
          <mxGeometry x="190" y="550" width="160" height="160" as="geometry"/>
        </mxCell>
        <mxCell id="bLn-22" value="&lt;p style=&quot;margin:0px;margin-left:4px;margin-top:4px;text-align:center&quot;&gt;&lt;b&gt;HtmlBuilder&lt;/b&gt;&lt;/p&gt;&lt;hr size=&quot;1&quot;/&gt;&lt;p style=&quot;margin:0px;margin-left:4px;margin-top:4px&quot;&gt;element_style_defaults: Hash&lt;/p&gt;&lt;hr size=&quot;1&quot;/&gt;&lt;p style=&quot;margin:0px;margin-left:4px;margin-top:4px&quot;&gt;default_for()&lt;/p&gt;&lt;p style=&quot;margin:0px;margin-left:4px;margin-top:4px&quot;&gt;style_for()&lt;/p&gt;&lt;p style=&quot;margin:0px;margin-left:4px;margin-top:4px&quot;&gt;empty?()&lt;/p&gt;&lt;p style=&quot;margin:0px;margin-left:4px;margin-top:4px&quot;&gt;exist?()&lt;/p&gt;&lt;p style=&quot;margin:0px;margin-left:4px;margin-top:4px&quot;&gt;as_html()&lt;/p&gt;&lt;p style=&quot;margin:0px;margin-left:4px;margin-top:4px&quot;&gt;hr()&lt;/p&gt;&lt;p style=&quot;margin:0px;margin-left:4px;margin-top:4px&quot;&gt;b()&lt;/p&gt;&lt;p style=&quot;margin:0px;margin-left:4px;margin-top:4px&quot;&gt;p()&lt;/p&gt;&lt;p style=&quot;margin:0px;margin-left:4px;margin-top:4px&quot;&gt;add_line()&lt;/p&gt;&lt;p style=&quot;margin:0px;margin-left:4px;margin-top:4px&quot;&gt;add_placeholder()&lt;/p&gt;&lt;p style=&quot;margin:0px;margin-left:4px;margin-top:4px&quot;&gt;group()&lt;/p&gt;&lt;p style=&quot;margin:0px;margin-left:4px;margin-top:4px&quot;&gt;build_lines()&lt;/p&gt;&lt;p style=&quot;margin:0px;margin-left:4px;margin-top:4px&quot;&gt;lines()&lt;/p&gt;&lt;p style=&quot;margin:0px;margin-left:4px;margin-top:4px&quot;&gt;groups()&lt;/p&gt;" style="whiteSpace=wrap;html=1;rounded=0;fillColor=#ffe6cc;strokeColor=#d79b00;fontColor=#333333;align=left;overflow=fill;fontSize=12;fontFamily=Helvetica" vertex="1" parent="node_root_bLn">
          <mxGeometry x="370" y="550" width="160" height="160" as="geometry"/>
        </mxCell>
        <mxCell id="bLn-23" value="&lt;p style=&quot;margin:0px;margin-left:4px;margin-top:4px;text-align:center&quot;&gt;&lt;i&gt;&amp;lt;&amp;lt; MixIn &amp;gt;&amp;gt;&lt;/i&gt;&lt;/p&gt;&lt;p style=&quot;margin:0px;margin-left:4px;margin-top:4px;text-align:center&quot;&gt;&lt;b&gt;Factory&lt;/b&gt;&lt;/p&gt;&lt;hr size=&quot;1&quot;/&gt;&lt;p style=&quot;margin:0px;margin-left:4px;margin-top:4px&quot;&gt;formatter()&lt;/p&gt;&lt;p style=&quot;margin:0px;margin-left:4px;margin-top:4px&quot;&gt;format_instance()&lt;/p&gt;" style="whiteSpace=wrap;html=1;rounded=0;fillColor=#dae8fc;strokeColor=#6c8ebf;fontColor=#333333;align=left;overflow=fill;fontSize=12;fontFamily=Helvetica" vertex="1" parent="node_root_bLn">
          <mxGeometry x="550" y="550" width="160" height="160" as="geometry"/>
        </mxCell>
        <mxCell id="bLn-24" value="&lt;p style=&quot;margin:0px;margin-left:4px;margin-top:4px;text-align:center&quot;&gt;&lt;b&gt;BaseFormatter&lt;/b&gt;&lt;/p&gt;&lt;hr size=&quot;1&quot;/&gt;&lt;p style=&quot;margin:0px;margin-left:4px;margin-top:4px&quot;&gt;html: String&lt;/p&gt;&lt;hr size=&quot;1&quot;/&gt;&lt;p style=&quot;margin:0px;margin-left:4px;margin-top:4px&quot;&gt;empty?()&lt;/p&gt;&lt;p style=&quot;margin:0px;margin-left:4px;margin-top:4px&quot;&gt;as_html()&lt;/p&gt;" style="whiteSpace=wrap;html=1;rounded=0;fillColor=#ffe6cc;strokeColor=#d79b00;fontColor=#333333;align=left;overflow=fill;fontSize=12;fontFamily=Helvetica" vertex="1" parent="node_root_bLn">
          <mxGeometry x="730" y="550" width="160" height="160" as="geometry"/>
        </mxCell>
        <mxCell id="bLn-25" value="&lt;p style=&quot;margin:0px;margin-left:4px;margin-top:4px;text-align:center&quot;&gt;&lt;b&gt;InterfaceFormatter&lt;/b&gt;&lt;/p&gt;&lt;hr size=&quot;1&quot;/&gt;&lt;p style=&quot;margin:0px;margin-left:4px;margin-top:4px&quot;&gt;header()&lt;/p&gt;&lt;p style=&quot;margin:0px;margin-left:4px;margin-top:4px&quot;&gt;field()&lt;/p&gt;&lt;p style=&quot;margin:0px;margin-left:4px;margin-top:4px&quot;&gt;method()&lt;/p&gt;&lt;p style=&quot;margin:0px;margin-left:4px;margin-top:4px&quot;&gt;as_html()&lt;/p&gt;" style="whiteSpace=wrap;html=1;rounded=0;fillColor=#ffe6cc;strokeColor=#d79b00;fontColor=#333333;align=left;overflow=fill;fontSize=12;fontFamily=Helvetica" vertex="1" parent="node_root_bLn">
          <mxGeometry x="910" y="550" width="160" height="160" as="geometry"/>
        </mxCell>
        <mxCell id="bLn-26" value="&lt;p style=&quot;margin:0px;margin-left:4px;margin-top:4px;text-align:center&quot;&gt;&lt;b&gt;KlassFormatter&lt;/b&gt;&lt;/p&gt;&lt;hr size=&quot;1&quot;/&gt;&lt;p style=&quot;margin:0px;margin-left:4px;margin-top:4px&quot;&gt;header()&lt;/p&gt;&lt;p style=&quot;margin:0px;margin-left:4px;margin-top:4px&quot;&gt;field()&lt;/p&gt;&lt;p style=&quot;margin:0px;margin-left:4px;margin-top:4px&quot;&gt;method()&lt;/p&gt;&lt;p style=&quot;margin:0px;margin-left:4px;margin-top:4px&quot;&gt;as_html()&lt;/p&gt;" style="whiteSpace=wrap;html=1;rounded=0;fillColor=#ffe6cc;strokeColor=#d79b00;fontColor=#333333;align=left;overflow=fill;fontSize=12;fontFamily=Helvetica" vertex="1" parent="node_root_bLn">
          <mxGeometry x="10" y="730" width="160" height="160" as="geometry"/>
        </mxCell>
        <mxCell id="bLn-27" value="&lt;p style=&quot;margin:0px;margin-left:4px;margin-top:4px;text-align:center&quot;&gt;&lt;b&gt;StyleBuilder&lt;/b&gt;&lt;/p&gt;&lt;hr size=&quot;1&quot;/&gt;&lt;p style=&quot;margin:0px;margin-left:4px;margin-top:4px&quot;&gt;defaults: Hash&lt;/p&gt;&lt;p style=&quot;margin:0px;margin-left:4px;margin-top:4px&quot;&gt;custom: Hash&lt;/p&gt;&lt;hr size=&quot;1&quot;/&gt;&lt;p style=&quot;margin:0px;margin-left:4px;margin-top:4px&quot;&gt;customize()&lt;/p&gt;&lt;p style=&quot;margin:0px;margin-left:4px;margin-top:4px&quot;&gt;style()&lt;/p&gt;&lt;p style=&quot;margin:0px;margin-left:4px;margin-top:4px&quot;&gt;style_attribute()&lt;/p&gt;&lt;p style=&quot;margin:0px;margin-left:4px;margin-top:4px&quot;&gt;build()&lt;/p&gt;" style="whiteSpace=wrap;html=1;rounded=0;fillColor=#ffe6cc;strokeColor=#d79b00;fontColor=#333333;align=left;overflow=fill;fontSize=12;fontFamily=Helvetica" vertex="1" parent="node_root_bLn">
          <mxGeometry x="190" y="730" width="160" height="160" as="geometry"/>
        </mxCell>
        <mxCell id="bLn-28" value="Schema" style="whiteSpace=wrap;html=1;rounded=0;fillColor=#f5f5f5;strokeColor=#666666;fontColor=#333333" vertex="1" parent="node_root_bLn">
          <mxGeometry x="370" y="730" width="160" height="160" as="geometry"/>
        </mxCell>
        <mxCell id="bLn-29" value="&lt;p style=&quot;margin:0px;margin-left:4px;margin-top:4px;text-align:center&quot;&gt;&lt;b&gt;Shape&lt;/b&gt;&lt;/p&gt;&lt;hr size=&quot;1&quot;/&gt;&lt;p style=&quot;margin:0px;margin-left:4px;margin-top:4px&quot;&gt;category: Symbol&lt;/p&gt;&lt;p style=&quot;margin:0px;margin-left:4px;margin-top:4px&quot;&gt;theme: Symbol&lt;/p&gt;&lt;p style=&quot;margin:0px;margin-left:4px;margin-top:4px&quot;&gt;title: String&lt;/p&gt;&lt;p style=&quot;margin:0px;margin-left:4px;margin-top:4px&quot;&gt;value: String&lt;/p&gt;&lt;p style=&quot;margin:0px;margin-left:4px;margin-top:4px&quot;&gt;white_space: int&lt;/p&gt;&lt;p style=&quot;margin:0px;margin-left:4px;margin-top:4px&quot;&gt;html: int&lt;/p&gt;&lt;p style=&quot;margin:0px;margin-left:4px;margin-top:4px&quot;&gt;rounded: int&lt;/p&gt;&lt;p style=&quot;margin:0px;margin-left:4px;margin-top:4px&quot;&gt;shadow: int&lt;/p&gt;&lt;p style=&quot;margin:0px;margin-left:4px;margin-top:4px&quot;&gt;glass: int&lt;/p&gt;&lt;p style=&quot;margin:0px;margin-left:4px;margin-top:4px&quot;&gt;sketch: int&lt;/p&gt;&lt;p style=&quot;margin:0px;margin-left:4px;margin-top:4px&quot;&gt;fill_color: String&lt;/p&gt;&lt;p style=&quot;margin:0px;margin-left:4px;margin-top:4px&quot;&gt;stroke_color: String&lt;/p&gt;&lt;p style=&quot;margin:0px;margin-left:4px;margin-top:4px&quot;&gt;font_color: String&lt;/p&gt;&lt;p style=&quot;margin:0px;margin-left:4px;margin-top:4px&quot;&gt;gradient: String&lt;/p&gt;&lt;p style=&quot;margin:0px;margin-left:4px;margin-top:4px&quot;&gt;x: int&lt;/p&gt;&lt;p style=&quot;margin:0px;margin-left:4px;margin-top:4px&quot;&gt;y: int&lt;/p&gt;&lt;p style=&quot;margin:0px;margin-left:4px;margin-top:4px&quot;&gt;w: int&lt;/p&gt;&lt;p style=&quot;margin:0px;margin-left:4px;margin-top:4px&quot;&gt;h: int&lt;/p&gt;&lt;p style=&quot;margin:0px;margin-left:4px;margin-top:4px&quot;&gt;style_modifiers: Hash&lt;/p&gt;&lt;p style=&quot;margin:0px;margin-left:4px;margin-top:4px&quot;&gt;source: Symbol (id)&lt;/p&gt;&lt;p style=&quot;margin:0px;margin-left:4px;margin-top:4px&quot;&gt;target: Symbol (id)&lt;/p&gt;&lt;hr size=&quot;1&quot;/&gt;&lt;p style=&quot;margin:0px;margin-left:4px;margin-top:4px&quot;&gt;&amp;gt; configure_shape()&lt;/p&gt;&lt;p style=&quot;margin:0px;margin-left:4px;margin-top:4px&quot;&gt;initialize()&lt;/p&gt;&lt;p style=&quot;margin:0px;margin-left:4px;margin-top:4px&quot;&gt;shape_defaults()&lt;/p&gt;&lt;p style=&quot;margin:0px;margin-left:4px;margin-top:4px&quot;&gt;apply_defaults()&lt;/p&gt;&lt;p style=&quot;margin:0px;margin-left:4px;margin-top:4px&quot;&gt;format()&lt;/p&gt;&lt;p style=&quot;margin:0px;margin-left:4px;margin-top:4px&quot;&gt;style()&lt;/p&gt;&lt;p style=&quot;margin:0px;margin-left:4px;margin-top:4px&quot;&gt;as_xml()&lt;/p&gt;&lt;p style=&quot;margin:0px;margin-left:4px;margin-top:4px&quot;&gt;draw_element()&lt;/p&gt;&lt;p style=&quot;margin:0px;margin-left:4px;margin-top:4px&quot;&gt;draw_line()&lt;/p&gt;&lt;p style=&quot;margin:0px;margin-left:4px;margin-top:4px&quot;&gt;to_h()&lt;/p&gt;" style="whiteSpace=wrap;html=1;rounded=0;fillColor=#ffe6cc;strokeColor=#d79b00;fontColor=#333333;align=left;overflow=fill;fontSize=12;fontFamily=Helvetica" vertex="1" parent="node_root_bLn">
          <mxGeometry x="550" y="730" width="160" height="160" as="geometry"/>
        </mxCell>
        <mxCell id="bLn-30" value="&lt;p style=&quot;margin:0px;margin-left:4px;margin-top:4px;text-align:center&quot;&gt;&lt;b&gt;CommonStyle&lt;/b&gt;&lt;/p&gt;&lt;hr size=&quot;1&quot;/&gt;&lt;p style=&quot;margin:0px;margin-left:4px;margin-top:4px&quot;&gt;white_space: int&lt;/p&gt;&lt;p style=&quot;margin:0px;margin-left:4px;margin-top:4px&quot;&gt;html: int&lt;/p&gt;&lt;p style=&quot;margin:0px;margin-left:4px;margin-top:4px&quot;&gt;rounded: int&lt;/p&gt;&lt;p style=&quot;margin:0px;margin-left:4px;margin-top:4px&quot;&gt;shadow: int&lt;/p&gt;&lt;p style=&quot;margin:0px;margin-left:4px;margin-top:4px&quot;&gt;glass: int&lt;/p&gt;&lt;p style=&quot;margin:0px;margin-left:4px;margin-top:4px&quot;&gt;sketch: int&lt;/p&gt;&lt;hr size=&quot;1&quot;/&gt;&lt;p style=&quot;margin:0px;margin-left:4px;margin-top:4px&quot;&gt;to_h()&lt;/p&gt;" style="whiteSpace=wrap;html=1;rounded=0;fillColor=#ffe6cc;strokeColor=#d79b00;fontColor=#333333;align=left;overflow=fill;fontSize=12;fontFamily=Helvetica" vertex="1" parent="node_root_bLn">
          <mxGeometry x="730" y="730" width="160" height="160" as="geometry"/>
        </mxCell>
        <mxCell id="bLn-31" value="&lt;p style=&quot;margin:0px;margin-left:4px;margin-top:4px;text-align:center&quot;&gt;&lt;b&gt;DefaultPalette&lt;/b&gt;&lt;/p&gt;&lt;hr size=&quot;1&quot;/&gt;&lt;p style=&quot;margin:0px;margin-left:4px;margin-top:4px&quot;&gt;fill_color: String&lt;/p&gt;&lt;p style=&quot;margin:0px;margin-left:4px;margin-top:4px&quot;&gt;stroke_color: String&lt;/p&gt;&lt;p style=&quot;margin:0px;margin-left:4px;margin-top:4px&quot;&gt;font_color: String&lt;/p&gt;&lt;p style=&quot;margin:0px;margin-left:4px;margin-top:4px&quot;&gt;gradient: String&lt;/p&gt;&lt;hr size=&quot;1&quot;/&gt;&lt;p style=&quot;margin:0px;margin-left:4px;margin-top:4px&quot;&gt;to_h()&lt;/p&gt;" style="whiteSpace=wrap;html=1;rounded=0;fillColor=#ffe6cc;strokeColor=#d79b00;fontColor=#333333;align=left;overflow=fill;fontSize=12;fontFamily=Helvetica" vertex="1" parent="node_root_bLn">
          <mxGeometry x="910" y="730" width="160" height="160" as="geometry"/>
        </mxCell>
        <mxCell id="bLn-32" value="&lt;p style=&quot;margin:0px;margin-left:4px;margin-top:4px;text-align:center&quot;&gt;&lt;b&gt;Diagram&lt;/b&gt;&lt;/p&gt;&lt;hr size=&quot;1&quot;/&gt;&lt;p style=&quot;margin:0px;margin-left:4px;margin-top:4px&quot;&gt;host: String&lt;/p&gt;&lt;p style=&quot;margin:0px;margin-left:4px;margin-top:4px&quot;&gt;theme: String&lt;/p&gt;&lt;p style=&quot;margin:0px;margin-left:4px;margin-top:4px&quot;&gt;style: CommonStyle&lt;/p&gt;&lt;p style=&quot;margin:0px;margin-left:4px;margin-top:4px&quot;&gt;palette: DefaultPalette&lt;/p&gt;&lt;p style=&quot;margin:0px;margin-left:4px;margin-top:4px&quot;&gt;pages: Array&lt;/p&gt;&lt;hr size=&quot;1&quot;/&gt;&lt;p style=&quot;margin:0px;margin-left:4px;margin-top:4px&quot;&gt;to_h()&lt;/p&gt;" style="whiteSpace=wrap;html=1;rounded=0;fillColor=#ffe6cc;strokeColor=#d79b00;fontColor=#333333;align=left;overflow=fill;fontSize=12;fontFamily=Helvetica" vertex="1" parent="node_root_bLn">
          <mxGeometry x="10" y="910" width="160" height="160" as="geometry"/>
        </mxCell>
        <mxCell id="bLn-33" value="&lt;p style=&quot;margin:0px;margin-left:4px;margin-top:4px;text-align:center&quot;&gt;&lt;b&gt;Node&lt;/b&gt;&lt;/p&gt;&lt;hr size=&quot;1&quot;/&gt;&lt;p style=&quot;margin:0px;margin-left:4px;margin-top:4px&quot;&gt;id: String&lt;/p&gt;&lt;p style=&quot;margin:0px;margin-left:4px;margin-top:4px&quot;&gt;page: Page&lt;/p&gt;&lt;p style=&quot;margin:0px;margin-left:4px;margin-top:4px&quot;&gt;parent: Node&lt;/p&gt;&lt;p style=&quot;margin:0px;margin-left:4px;margin-top:4px&quot;&gt;classification: String&lt;/p&gt;&lt;p style=&quot;margin:0px;margin-left:4px;margin-top:4px&quot;&gt;type: String&lt;/p&gt;&lt;p style=&quot;margin:0px;margin-left:4px;margin-top:4px&quot;&gt;nodes: Array&lt;/p&gt;&lt;hr size=&quot;1&quot;/&gt;&lt;p style=&quot;margin:0px;margin-left:4px;margin-top:4px&quot;&gt;initialize()&lt;/p&gt;&lt;p style=&quot;margin:0px;margin-left:4px;margin-top:4px&quot;&gt;to_h()&lt;/p&gt;&lt;p style=&quot;margin:0px;margin-left:4px;margin-top:4px&quot;&gt;root?()&lt;/p&gt;&lt;p style=&quot;margin:0px;margin-left:4px;margin-top:4px&quot;&gt;add_node()&lt;/p&gt;" style="whiteSpace=wrap;html=1;rounded=0;fillColor=#ffe6cc;strokeColor=#d79b00;fontColor=#333333;align=left;overflow=fill;fontSize=12;fontFamily=Helvetica" vertex="1" parent="node_root_bLn">
          <mxGeometry x="190" y="910" width="160" height="160" as="geometry"/>
        </mxCell>
        <mxCell id="bLn-34" value="&lt;p style=&quot;margin:0px;margin-left:4px;margin-top:4px;text-align:center&quot;&gt;&lt;b&gt;NodeList&lt;/b&gt;&lt;/p&gt;&lt;hr size=&quot;1&quot;/&gt;&lt;p style=&quot;margin:0px;margin-left:4px;margin-top:4px&quot;&gt;nodes: Array&lt;/p&gt;&lt;hr size=&quot;1&quot;/&gt;&lt;p style=&quot;margin:0px;margin-left:4px;margin-top:4px&quot;&gt;add()&lt;/p&gt;&lt;p style=&quot;margin:0px;margin-left:4px;margin-top:4px&quot;&gt;all()&lt;/p&gt;&lt;p style=&quot;margin:0px;margin-left:4px;margin-top:4px&quot;&gt;shapes()&lt;/p&gt;&lt;p style=&quot;margin:0px;margin-left:4px;margin-top:4px&quot;&gt;layouts()&lt;/p&gt;&lt;p style=&quot;margin:0px;margin-left:4px;margin-top:4px&quot;&gt;length()&lt;/p&gt;&lt;p style=&quot;margin:0px;margin-left:4px;margin-top:4px&quot;&gt;empty?()&lt;/p&gt;&lt;p style=&quot;margin:0px;margin-left:4px;margin-top:4px&quot;&gt;any?()&lt;/p&gt;&lt;p style=&quot;margin:0px;margin-left:4px;margin-top:4px&quot;&gt;first()&lt;/p&gt;&lt;p style=&quot;margin:0px;margin-left:4px;margin-top:4px&quot;&gt;as_xml()&lt;/p&gt;&lt;p style=&quot;margin:0px;margin-left:4px;margin-top:4px&quot;&gt;to_h()&lt;/p&gt;" style="whiteSpace=wrap;html=1;rounded=0;fillColor=#ffe6cc;strokeColor=#d79b00;fontColor=#333333;align=left;overflow=fill;fontSize=12;fontFamily=Helvetica" vertex="1" parent="node_root_bLn">
          <mxGeometry x="370" y="910" width="160" height="160" as="geometry"/>
        </mxCell>
        <mxCell id="bLn-35" value="&lt;p style=&quot;margin:0px;margin-left:4px;margin-top:4px;text-align:center&quot;&gt;&lt;b&gt;Page&lt;/b&gt;&lt;/p&gt;&lt;hr size=&quot;1&quot;/&gt;&lt;p style=&quot;margin:0px;margin-left:4px;margin-top:4px&quot;&gt;diagram: Diagram&lt;/p&gt;&lt;p style=&quot;margin:0px;margin-left:4px;margin-top:4px&quot;&gt;position_x: int&lt;/p&gt;&lt;p style=&quot;margin:0px;margin-left:4px;margin-top:4px&quot;&gt;position_y: int&lt;/p&gt;&lt;p style=&quot;margin:0px;margin-left:4px;margin-top:4px&quot;&gt;id: String&lt;/p&gt;&lt;p style=&quot;margin:0px;margin-left:4px;margin-top:4px&quot;&gt;active: bool&lt;/p&gt;&lt;p style=&quot;margin:0px;margin-left:4px;margin-top:4px&quot;&gt;name: String&lt;/p&gt;&lt;p style=&quot;margin:0px;margin-left:4px;margin-top:4px&quot;&gt;theme: Symbol&lt;/p&gt;&lt;p style=&quot;margin:0px;margin-left:4px;margin-top:4px&quot;&gt;style: CommonStyle&lt;/p&gt;&lt;p style=&quot;margin:0px;margin-left:4px;margin-top:4px&quot;&gt;palette: DefaultPalette&lt;/p&gt;&lt;p style=&quot;margin:0px;margin-left:4px;margin-top:4px&quot;&gt;margin_left: int&lt;/p&gt;&lt;p style=&quot;margin:0px;margin-left:4px;margin-top:4px&quot;&gt;margin_top: int&lt;/p&gt;&lt;p style=&quot;margin:0px;margin-left:4px;margin-top:4px&quot;&gt;nodes: Array&lt;/p&gt;&lt;p style=&quot;margin:0px;margin-left:4px;margin-top:4px&quot;&gt;grid: String&lt;/p&gt;&lt;p style=&quot;margin:0px;margin-left:4px;margin-top:4px&quot;&gt;grid_size: int&lt;/p&gt;&lt;p style=&quot;margin:0px;margin-left:4px;margin-top:4px&quot;&gt;guides: String&lt;/p&gt;&lt;p style=&quot;margin:0px;margin-left:4px;margin-top:4px&quot;&gt;tooltips: String&lt;/p&gt;&lt;p style=&quot;margin:0px;margin-left:4px;margin-top:4px&quot;&gt;connect: String&lt;/p&gt;&lt;p style=&quot;margin:0px;margin-left:4px;margin-top:4px&quot;&gt;arrows: String&lt;/p&gt;&lt;p style=&quot;margin:0px;margin-left:4px;margin-top:4px&quot;&gt;fold: String&lt;/p&gt;&lt;p style=&quot;margin:0px;margin-left:4px;margin-top:4px&quot;&gt;page_no: String&lt;/p&gt;&lt;p style=&quot;margin:0px;margin-left:4px;margin-top:4px&quot;&gt;page_scale: String&lt;/p&gt;&lt;p style=&quot;margin:0px;margin-left:4px;margin-top:4px&quot;&gt;page_width: String&lt;/p&gt;&lt;p style=&quot;margin:0px;margin-left:4px;margin-top:4px&quot;&gt;page_height: String&lt;/p&gt;&lt;p style=&quot;margin:0px;margin-left:4px;margin-top:4px&quot;&gt;background: String&lt;/p&gt;&lt;p style=&quot;margin:0px;margin-left:4px;margin-top:4px&quot;&gt;page_shadow: String&lt;/p&gt;&lt;p style=&quot;margin:0px;margin-left:4px;margin-top:4px&quot;&gt;math: String&lt;/p&gt;&lt;p style=&quot;margin:0px;margin-left:4px;margin-top:4px&quot;&gt;active?: Boolean&lt;/p&gt;&lt;hr size=&quot;1&quot;/&gt;&lt;p style=&quot;margin:0px;margin-left:4px;margin-top:4px&quot;&gt;add_node()&lt;/p&gt;&lt;p style=&quot;margin:0px;margin-left:4px;margin-top:4px&quot;&gt;as_xml()&lt;/p&gt;&lt;p style=&quot;margin:0px;margin-left:4px;margin-top:4px&quot;&gt;to_h()&lt;/p&gt;&lt;p style=&quot;margin:0px;margin-left:4px;margin-top:4px&quot;&gt;settings()&lt;/p&gt;" style="whiteSpace=wrap;html=1;rounded=0;fillColor=#ffe6cc;strokeColor=#d79b00;fontColor=#333333;align=left;overflow=fill;fontSize=12;fontFamily=Helvetica" vertex="1" parent="node_root_bLn">
          <mxGeometry x="550" y="910" width="160" height="160" as="geometry"/>
        </mxCell>
        <mxCell id="bLn-36" value="Schema/Layouts" style="whiteSpace=wrap;html=1;rounded=0;fillColor=#f5f5f5;strokeColor=#666666;fontColor=#333333" vertex="1" parent="node_root_bLn">
          <mxGeometry x="730" y="910" width="160" height="160" as="geometry"/>
        </mxCell>
        <mxCell id="bLn-37" value="&lt;p style=&quot;margin:0px;margin-left:4px;margin-top:4px;text-align:center&quot;&gt;&lt;b&gt;FlexLayout&lt;/b&gt;&lt;/p&gt;&lt;hr size=&quot;1&quot;/&gt;&lt;p style=&quot;margin:0px;margin-left:4px;margin-top:4px&quot;&gt;direction: String&lt;/p&gt;&lt;p style=&quot;margin:0px;margin-left:4px;margin-top:4px&quot;&gt;wrap_at: int&lt;/p&gt;&lt;p style=&quot;margin:0px;margin-left:4px;margin-top:4px&quot;&gt;gap: int&lt;/p&gt;&lt;p style=&quot;margin:0px;margin-left:4px;margin-top:4px&quot;&gt;perpendicular_max: int&lt;/p&gt;&lt;hr size=&quot;1&quot;/&gt;&lt;p style=&quot;margin:0px;margin-left:4px;margin-top:4px&quot;&gt;position_shape()&lt;/p&gt;&lt;p style=&quot;margin:0px;margin-left:4px;margin-top:4px&quot;&gt;to_h()&lt;/p&gt;" style="whiteSpace=wrap;html=1;rounded=0;fillColor=#ffe6cc;strokeColor=#d79b00;fontColor=#333333;align=left;overflow=fill;fontSize=12;fontFamily=Helvetica" vertex="1" parent="node_root_bLn">
          <mxGeometry x="910" y="910" width="160" height="160" as="geometry"/>
        </mxCell>
        <mxCell id="bLn-38" value="&lt;p style=&quot;margin:0px;margin-left:4px;margin-top:4px;text-align:center&quot;&gt;&lt;b&gt;GridLayout&lt;/b&gt;&lt;/p&gt;&lt;hr size=&quot;1&quot;/&gt;&lt;p style=&quot;margin:0px;margin-left:4px;margin-top:4px&quot;&gt;direction: String&lt;/p&gt;&lt;p style=&quot;margin:0px;margin-left:4px;margin-top:4px&quot;&gt;wrap_at: int&lt;/p&gt;&lt;p style=&quot;margin:0px;margin-left:4px;margin-top:4px&quot;&gt;grid_size: int&lt;/p&gt;&lt;p style=&quot;margin:0px;margin-left:4px;margin-top:4px&quot;&gt;grid_w: int&lt;/p&gt;&lt;p style=&quot;margin:0px;margin-left:4px;margin-top:4px&quot;&gt;grid_h: int&lt;/p&gt;&lt;p style=&quot;margin:0px;margin-left:4px;margin-top:4px&quot;&gt;cell_no: int&lt;/p&gt;&lt;p style=&quot;margin:0px;margin-left:4px;margin-top:4px&quot;&gt;h_align: String&lt;/p&gt;&lt;p style=&quot;margin:0px;margin-left:4px;margin-top:4px&quot;&gt;v_align: String&lt;/p&gt;&lt;hr size=&quot;1&quot;/&gt;&lt;p style=&quot;margin:0px;margin-left:4px;margin-top:4px&quot;&gt;position_shape()&lt;/p&gt;&lt;p style=&quot;margin:0px;margin-left:4px;margin-top:4px&quot;&gt;to_h()&lt;/p&gt;" style="whiteSpace=wrap;html=1;rounded=0;fillColor=#ffe6cc;strokeColor=#d79b00;fontColor=#333333;align=left;overflow=fill;fontSize=12;fontFamily=Helvetica" vertex="1" parent="node_root_bLn">
          <mxGeometry x="10" y="1090" width="160" height="160" as="geometry"/>
        </mxCell>
        <mxCell id="bLn-39" value="&lt;p style=&quot;margin:0px;margin-left:4px;margin-top:4px;text-align:center&quot;&gt;&lt;b&gt;Layout&lt;/b&gt;&lt;/p&gt;&lt;hr size=&quot;1&quot;/&gt;&lt;p style=&quot;margin:0px;margin-left:4px;margin-top:4px&quot;&gt;anchor_x: String&lt;/p&gt;&lt;p style=&quot;margin:0px;margin-left:4px;margin-top:4px&quot;&gt;anchor_y: String&lt;/p&gt;&lt;hr size=&quot;1&quot;/&gt;&lt;p style=&quot;margin:0px;margin-left:4px;margin-top:4px&quot;&gt;fire_after_init()&lt;/p&gt;&lt;p style=&quot;margin:0px;margin-left:4px;margin-top:4px&quot;&gt;after_init()&lt;/p&gt;&lt;p style=&quot;margin:0px;margin-left:4px;margin-top:4px&quot;&gt;to_h()&lt;/p&gt;" style="whiteSpace=wrap;html=1;rounded=0;fillColor=#ffe6cc;strokeColor=#d79b00;fontColor=#333333;align=left;overflow=fill;fontSize=12;fontFamily=Helvetica" vertex="1" parent="node_root_bLn">
          <mxGeometry x="190" y="1090" width="160" height="160" as="geometry"/>
        </mxCell>
        <mxCell id="bLn-40" value="Schema/virtual" style="whiteSpace=wrap;html=1;rounded=0;fillColor=#f5f5f5;strokeColor=#666666;fontColor=#333333" vertex="1" parent="node_root_bLn">
          <mxGeometry x="370" y="1090" width="160" height="160" as="geometry"/>
        </mxCell>
        <mxCell id="bLn-41" value="anchor" style="whiteSpace=wrap;html=1;rounded=0;fillColor=#d5e8d4;strokeColor=#82b366;fontColor=#333333;shape=mxgraph.basic.cloud_rect" vertex="1" parent="node_root_bLn">
          <mxGeometry x="592" y="1145" width="75" height="50" as="geometry"/>
        </mxCell>
        <mxCell id="bLn-42" value="Schema/shapes" style="whiteSpace=wrap;html=1;rounded=0;fillColor=#f5f5f5;strokeColor=#666666;fontColor=#333333" vertex="1" parent="node_root_bLn">
          <mxGeometry x="730" y="1090" width="160" height="160" as="geometry"/>
        </mxCell>
        <mxCell id="bLn-44" value="actor" style="whiteSpace=wrap;html=1;rounded=0;fillColor=#d5e8d4;strokeColor=#82b366;fontColor=#333333;shape=mxgraph.basic.cloud_rect" vertex="1" parent="node_root_bLn">
          <mxGeometry x="907" y="1090" width="75" height="50" as="geometry"/>
        </mxCell>
        <mxCell id="bLn-45" value="actor2" style="whiteSpace=wrap;html=1;rounded=0;fillColor=#d5e8d4;strokeColor=#82b366;fontColor=#333333;shape=mxgraph.basic.cloud_rect" vertex="1" parent="node_root_bLn">
          <mxGeometry x="997" y="1090" width="75" height="50" as="geometry"/>
        </mxCell>
        <mxCell id="bLn-46" value="callout" style="whiteSpace=wrap;html=1;rounded=0;fillColor=#d5e8d4;strokeColor=#82b366;fontColor=#333333;shape=mxgraph.basic.cloud_rect" vertex="1" parent="node_root_bLn">
          <mxGeometry x="1087" y="1090" width="75" height="50" as="geometry"/>
        </mxCell>
        <mxCell id="bLn-47" value="callout2" style="whiteSpace=wrap;html=1;rounded=0;fillColor=#d5e8d4;strokeColor=#82b366;fontColor=#333333;shape=mxgraph.basic.cloud_rect" vertex="1" parent="node_root_bLn">
          <mxGeometry x="1177" y="1090" width="75" height="50" as="geometry"/>
        </mxCell>
        <mxCell id="bLn-48" value="callout3" style="whiteSpace=wrap;html=1;rounded=0;fillColor=#d5e8d4;strokeColor=#82b366;fontColor=#333333;shape=mxgraph.basic.cloud_rect" vertex="1" parent="node_root_bLn">
          <mxGeometry x="1267" y="1090" width="75" height="50" as="geometry"/>
        </mxCell>
        <mxCell id="bLn-49" value="callout4" style="whiteSpace=wrap;html=1;rounded=0;fillColor=#d5e8d4;strokeColor=#82b366;fontColor=#333333;shape=mxgraph.basic.cloud_rect" vertex="1" parent="node_root_bLn">
          <mxGeometry x="1357" y="1090" width="75" height="50" as="geometry"/>
        </mxCell>
        <mxCell id="bLn-50" value="circle" style="whiteSpace=wrap;html=1;rounded=0;fillColor=#d5e8d4;strokeColor=#82b366;fontColor=#333333;shape=mxgraph.basic.cloud_rect" vertex="1" parent="node_root_bLn">
          <mxGeometry x="1447" y="1090" width="75" height="50" as="geometry"/>
        </mxCell>
        <mxCell id="bLn-51" value="cloud" style="whiteSpace=wrap;html=1;rounded=0;fillColor=#d5e8d4;strokeColor=#82b366;fontColor=#333333;shape=mxgraph.basic.cloud_rect" vertex="1" parent="node_root_bLn">
          <mxGeometry x="1537" y="1090" width="75" height="50" as="geometry"/>
        </mxCell>
        <mxCell id="bLn-52" value="container" style="whiteSpace=wrap;html=1;rounded=0;fillColor=#d5e8d4;strokeColor=#82b366;fontColor=#333333;shape=mxgraph.basic.cloud_rect" vertex="1" parent="node_root_bLn">
          <mxGeometry x="1627" y="1090" width="75" height="50" as="geometry"/>
        </mxCell>
        <mxCell id="bLn-53" value="container2" style="whiteSpace=wrap;html=1;rounded=0;fillColor=#d5e8d4;strokeColor=#82b366;fontColor=#333333;shape=mxgraph.basic.cloud_rect" vertex="1" parent="node_root_bLn">
          <mxGeometry x="1717" y="1090" width="75" height="50" as="geometry"/>
        </mxCell>
        <mxCell id="bLn-54" value="container3" style="whiteSpace=wrap;html=1;rounded=0;fillColor=#d5e8d4;strokeColor=#82b366;fontColor=#333333;shape=mxgraph.basic.cloud_rect" vertex="1" parent="node_root_bLn">
          <mxGeometry x="1807" y="1090" width="75" height="50" as="geometry"/>
        </mxCell>
        <mxCell id="bLn-55" value="container4" style="whiteSpace=wrap;html=1;rounded=0;fillColor=#d5e8d4;strokeColor=#82b366;fontColor=#333333;shape=mxgraph.basic.cloud_rect" vertex="1" parent="node_root_bLn">
          <mxGeometry x="1897" y="1090" width="75" height="50" as="geometry"/>
        </mxCell>
        <mxCell id="bLn-56" value="cross" style="whiteSpace=wrap;html=1;rounded=0;fillColor=#d5e8d4;strokeColor=#82b366;fontColor=#333333;shape=mxgraph.basic.cloud_rect" vertex="1" parent="node_root_bLn">
          <mxGeometry x="907" y="1160" width="75" height="50" as="geometry"/>
        </mxCell>
        <mxCell id="bLn-57" value="database" style="whiteSpace=wrap;html=1;rounded=0;fillColor=#d5e8d4;strokeColor=#82b366;fontColor=#333333;shape=mxgraph.basic.cloud_rect" vertex="1" parent="node_root_bLn">
          <mxGeometry x="997" y="1160" width="75" height="50" as="geometry"/>
        </mxCell>
        <mxCell id="bLn-58" value="db_json" style="whiteSpace=wrap;html=1;rounded=0;fillColor=#d5e8d4;strokeColor=#82b366;fontColor=#333333;shape=mxgraph.basic.cloud_rect" vertex="1" parent="node_root_bLn">
          <mxGeometry x="1087" y="1160" width="75" height="50" as="geometry"/>
        </mxCell>
        <mxCell id="bLn-59" value="diamond" style="whiteSpace=wrap;html=1;rounded=0;fillColor=#d5e8d4;strokeColor=#82b366;fontColor=#333333;shape=mxgraph.basic.cloud_rect" vertex="1" parent="node_root_bLn">
          <mxGeometry x="1177" y="1160" width="75" height="50" as="geometry"/>
        </mxCell>
        <mxCell id="bLn-60" value="document" style="whiteSpace=wrap;html=1;rounded=0;fillColor=#d5e8d4;strokeColor=#82b366;fontColor=#333333;shape=mxgraph.basic.cloud_rect" vertex="1" parent="node_root_bLn">
          <mxGeometry x="1267" y="1160" width="75" height="50" as="geometry"/>
        </mxCell>
        <mxCell id="bLn-61" value="ellipse" style="whiteSpace=wrap;html=1;rounded=0;fillColor=#d5e8d4;strokeColor=#82b366;fontColor=#333333;shape=mxgraph.basic.cloud_rect" vertex="1" parent="node_root_bLn">
          <mxGeometry x="1357" y="1160" width="75" height="50" as="geometry"/>
        </mxCell>
        <mxCell id="bLn-62" value="embed_col200" style="whiteSpace=wrap;html=1;rounded=0;fillColor=#d5e8d4;strokeColor=#82b366;fontColor=#333333;shape=mxgraph.basic.cloud_rect" vertex="1" parent="node_root_bLn">
          <mxGeometry x="1447" y="1160" width="75" height="50" as="geometry"/>
        </mxCell>
        <mxCell id="bLn-63" value="embed_col50" style="whiteSpace=wrap;html=1;rounded=0;fillColor=#d5e8d4;strokeColor=#82b366;fontColor=#333333;shape=mxgraph.basic.cloud_rect" vertex="1" parent="node_root_bLn">
          <mxGeometry x="1537" y="1160" width="75" height="50" as="geometry"/>
        </mxCell>
        <mxCell id="bLn-64" value="embed_row" style="whiteSpace=wrap;html=1;rounded=0;fillColor=#d5e8d4;strokeColor=#82b366;fontColor=#333333;shape=mxgraph.basic.cloud_rect" vertex="1" parent="node_root_bLn">
          <mxGeometry x="1627" y="1160" width="75" height="50" as="geometry"/>
        </mxCell>
        <mxCell id="bLn-65" value="envelop" style="whiteSpace=wrap;html=1;rounded=0;fillColor=#d5e8d4;strokeColor=#82b366;fontColor=#333333;shape=mxgraph.basic.cloud_rect" vertex="1" parent="node_root_bLn">
          <mxGeometry x="1717" y="1160" width="75" height="50" as="geometry"/>
        </mxCell>
        <mxCell id="bLn-66" value="face" style="whiteSpace=wrap;html=1;rounded=0;fillColor=#d5e8d4;strokeColor=#82b366;fontColor=#333333;shape=mxgraph.basic.cloud_rect" vertex="1" parent="node_root_bLn">
          <mxGeometry x="1807" y="1160" width="75" height="50" as="geometry"/>
        </mxCell>
        <mxCell id="bLn-67" value="h1" style="whiteSpace=wrap;html=1;rounded=0;fillColor=#d5e8d4;strokeColor=#82b366;fontColor=#333333;shape=mxgraph.basic.cloud_rect" vertex="1" parent="node_root_bLn">
          <mxGeometry x="1897" y="1160" width="75" height="50" as="geometry"/>
        </mxCell>
        <mxCell id="bLn-68" value="h2" style="whiteSpace=wrap;html=1;rounded=0;fillColor=#d5e8d4;strokeColor=#82b366;fontColor=#333333;shape=mxgraph.basic.cloud_rect" vertex="1" parent="node_root_bLn">
          <mxGeometry x="907" y="1230" width="75" height="50" as="geometry"/>
        </mxCell>
        <mxCell id="bLn-69" value="h3" style="whiteSpace=wrap;html=1;rounded=0;fillColor=#d5e8d4;strokeColor=#82b366;fontColor=#333333;shape=mxgraph.basic.cloud_rect" vertex="1" parent="node_root_bLn">
          <mxGeometry x="997" y="1230" width="75" height="50" as="geometry"/>
        </mxCell>
        <mxCell id="bLn-70" value="h4" style="whiteSpace=wrap;html=1;rounded=0;fillColor=#d5e8d4;strokeColor=#82b366;fontColor=#333333;shape=mxgraph.basic.cloud_rect" vertex="1" parent="node_root_bLn">
          <mxGeometry x="1087" y="1230" width="75" height="50" as="geometry"/>
        </mxCell>
        <mxCell id="bLn-71" value="h5" style="whiteSpace=wrap;html=1;rounded=0;fillColor=#d5e8d4;strokeColor=#82b366;fontColor=#333333;shape=mxgraph.basic.cloud_rect" vertex="1" parent="node_root_bLn">
          <mxGeometry x="1177" y="1230" width="75" height="50" as="geometry"/>
        </mxCell>
        <mxCell id="bLn-72" value="h6" style="whiteSpace=wrap;html=1;rounded=0;fillColor=#d5e8d4;strokeColor=#82b366;fontColor=#333333;shape=mxgraph.basic.cloud_rect" vertex="1" parent="node_root_bLn">
          <mxGeometry x="1267" y="1230" width="75" height="50" as="geometry"/>
        </mxCell>
        <mxCell id="bLn-73" value="hexagon" style="whiteSpace=wrap;html=1;rounded=0;fillColor=#d5e8d4;strokeColor=#82b366;fontColor=#333333;shape=mxgraph.basic.cloud_rect" vertex="1" parent="node_root_bLn">
          <mxGeometry x="1357" y="1230" width="75" height="50" as="geometry"/>
        </mxCell>
        <mxCell id="bLn-74" value="interface" style="whiteSpace=wrap;html=1;rounded=0;fillColor=#d5e8d4;strokeColor=#82b366;fontColor=#333333;shape=mxgraph.basic.cloud_rect" vertex="1" parent="node_root_bLn">
          <mxGeometry x="1447" y="1230" width="75" height="50" as="geometry"/>
        </mxCell>
        <mxCell id="bLn-75" value="klass" style="whiteSpace=wrap;html=1;rounded=0;fillColor=#d5e8d4;strokeColor=#82b366;fontColor=#333333;shape=mxgraph.basic.cloud_rect" vertex="1" parent="node_root_bLn">
          <mxGeometry x="1537" y="1230" width="75" height="50" as="geometry"/>
        </mxCell>
        <mxCell id="bLn-76" value="line" style="whiteSpace=wrap;html=1;rounded=0;fillColor=#d5e8d4;strokeColor=#82b366;fontColor=#333333;shape=mxgraph.basic.cloud_rect" vertex="1" parent="node_root_bLn">
          <mxGeometry x="1627" y="1230" width="75" height="50" as="geometry"/>
        </mxCell>
        <mxCell id="bLn-77" value="note" style="whiteSpace=wrap;html=1;rounded=0;fillColor=#d5e8d4;strokeColor=#82b366;fontColor=#333333;shape=mxgraph.basic.cloud_rect" vertex="1" parent="node_root_bLn">
          <mxGeometry x="1717" y="1230" width="75" height="50" as="geometry"/>
        </mxCell>
        <mxCell id="bLn-78" value="p" style="whiteSpace=wrap;html=1;rounded=0;fillColor=#d5e8d4;strokeColor=#82b366;fontColor=#333333;shape=mxgraph.basic.cloud_rect" vertex="1" parent="node_root_bLn">
          <mxGeometry x="1807" y="1230" width="75" height="50" as="geometry"/>
        </mxCell>
        <mxCell id="bLn-79" value="process" style="whiteSpace=wrap;html=1;rounded=0;fillColor=#d5e8d4;strokeColor=#82b366;fontColor=#333333;shape=mxgraph.basic.cloud_rect" vertex="1" parent="node_root_bLn">
          <mxGeometry x="1897" y="1230" width="75" height="50" as="geometry"/>
        </mxCell>
        <mxCell id="bLn-80" value="rectangle" style="whiteSpace=wrap;html=1;rounded=0;fillColor=#d5e8d4;strokeColor=#82b366;fontColor=#333333;shape=mxgraph.basic.cloud_rect" vertex="1" parent="node_root_bLn">
          <mxGeometry x="907" y="1300" width="75" height="50" as="geometry"/>
        </mxCell>
        <mxCell id="bLn-81" value="rectangle2" style="whiteSpace=wrap;html=1;rounded=0;fillColor=#d5e8d4;strokeColor=#82b366;fontColor=#333333;shape=mxgraph.basic.cloud_rect" vertex="1" parent="node_root_bLn">
          <mxGeometry x="997" y="1300" width="75" height="50" as="geometry"/>
        </mxCell>
        <mxCell id="bLn-82" value="shape" style="whiteSpace=wrap;html=1;rounded=0;fillColor=#d5e8d4;strokeColor=#82b366;fontColor=#333333;shape=mxgraph.basic.cloud_rect" vertex="1" parent="node_root_bLn">
          <mxGeometry x="1087" y="1300" width="75" height="50" as="geometry"/>
        </mxCell>
        <mxCell id="bLn-83" value="square" style="whiteSpace=wrap;html=1;rounded=0;fillColor=#d5e8d4;strokeColor=#82b366;fontColor=#333333;shape=mxgraph.basic.cloud_rect" vertex="1" parent="node_root_bLn">
          <mxGeometry x="1177" y="1300" width="75" height="50" as="geometry"/>
        </mxCell>
        <mxCell id="bLn-84" value="step" style="whiteSpace=wrap;html=1;rounded=0;fillColor=#d5e8d4;strokeColor=#82b366;fontColor=#333333;shape=mxgraph.basic.cloud_rect" vertex="1" parent="node_root_bLn">
          <mxGeometry x="1267" y="1300" width="75" height="50" as="geometry"/>
        </mxCell>
        <mxCell id="bLn-85" value="tick" style="whiteSpace=wrap;html=1;rounded=0;fillColor=#d5e8d4;strokeColor=#82b366;fontColor=#333333;shape=mxgraph.basic.cloud_rect" vertex="1" parent="node_root_bLn">
          <mxGeometry x="1357" y="1300" width="75" height="50" as="geometry"/>
        </mxCell>
        <mxCell id="bLn-86" value="todo" style="whiteSpace=wrap;html=1;rounded=0;fillColor=#d5e8d4;strokeColor=#82b366;fontColor=#333333;shape=mxgraph.basic.cloud_rect" vertex="1" parent="node_root_bLn">
          <mxGeometry x="1447" y="1300" width="75" height="50" as="geometry"/>
        </mxCell>
        <mxCell id="bLn-87" value="triangle" style="whiteSpace=wrap;html=1;rounded=0;fillColor=#d5e8d4;strokeColor=#82b366;fontColor=#333333;shape=mxgraph.basic.cloud_rect" vertex="1" parent="node_root_bLn">
          <mxGeometry x="1537" y="1300" width="75" height="50" as="geometry"/>
        </mxCell>
      </root>
    </mxGraphModel>
  </diagram>
</mxfile>